<svg xmlns="http://www.w3.org/2000/svg" viewBox="0 0 52.79 42.88"><defs><style>.cls-1{fill:#fff;}</style></defs><g id="Ebene_2" data-name="Ebene 2"><g id="Ebene_1-2" data-name="Ebene 1"><path class="cls-1" d="M2.67,54.46v-.58c0-7.33,3.3-13.3,12.41-19.94,6-4.34,7.75-5.84,7.75-9.52s-1.78-5.71-5.32-5.71c-4.13,0-5.61,2.53-6.19,6.2H2.48c.6-7.27,5.36-13.32,15-13.32C28.33,11.59,32,18,32,24.34c0,6.13-2.63,9.1-10.39,14.54-5.19,3.64-7.27,6-8,7.94H33.59l-1.14,7.64Z" transform="translate(-2.48 -11.59)"/><path class="cls-1" d="M46,54.46V23a27.92,27.92,0,0,1-7.61,1.83V18a19.82,19.82,0,0,0,10.44-5.65h6.47V54.46Z" transform="translate(-2.48 -11.59)"/></g></g></svg>